<svg width="93" height="139" viewBox="0 0 93 139" fill="none" xmlns="http://www.w3.org/2000/svg">
<path d="M84.6201 133.425C84.6201 135.544 81.5941 135.592 80.0073 135.955C77.269 136.581 74.1037 136.412 71.2943 136.308C69.0572 136.225 66.6685 134.747 64.7274 133.777C63.3483 133.087 62.4151 132.782 61.2678 131.695C60.146 130.632 59.4781 129.52 58.513 128.379C55.2176 124.485 53.585 119.12 51.8981 114.397C50.599 110.759 50.3124 106.752 50.3124 102.865C50.3124 95.7676 49.7358 88.6061 49.7358 81.3864C49.7358 78.1569 50.6124 74.4175 52.1864 71.5842C53.0596 70.0124 53.6104 67.9945 55.0694 66.8273C55.4014 66.5617 56.1794 65.3749 56.3667 64.9533C56.706 64.1901 57.4394 64.1054 57.8082 63.3677" stroke="#73562B" stroke-width="3.51773" stroke-linecap="round"/>
<path d="M10.9961 133.776C10.9961 135.896 14.0221 135.944 15.6089 136.307C18.3473 136.933 21.5125 136.763 24.3219 136.659C26.559 136.576 28.9478 135.099 30.8888 134.129C32.2679 133.439 33.2011 133.133 34.3484 132.047C35.4702 130.984 36.1381 129.872 37.1032 128.731C40.3986 124.837 42.0312 119.472 43.7181 114.749C45.0173 111.111 45.3038 107.104 45.3038 103.217C45.3038 96.1194 45.8804 88.9579 45.8804 81.7382C45.8804 78.5087 45.0038 74.7693 43.4298 71.936C42.5566 70.3642 42.0058 68.3463 40.5468 67.1791C40.2149 66.9135 39.4368 65.7267 39.2495 65.3051C38.9102 64.5419 38.1768 64.4572 37.808 63.7195" stroke="#73562B" stroke-width="3.51773" stroke-linecap="round"/>
<rect x="41.9492" y="67.8042" width="10.9929" height="69.1674" fill="#73562B"/>
<rect x="31.5713" y="132.179" width="33.5944" height="4.08937" fill="#73562B"/>
<rect x="26.8223" y="134.377" width="43.3121" height="3.60568" fill="#73562B"/>
<rect x="52.3701" y="126.99" width="6.06809" height="9.98157" fill="#73562B"/>
<rect x="52.3701" y="130.904" width="7.6071" height="6.06809" fill="#73562B"/>
<rect x="52.3701" y="122.329" width="3.51773" height="4.661" fill="#73562B"/>
<rect x="51.3594" y="121.406" width="3.73759" height="5.5844" fill="#73562B"/>
<rect x="35.6172" y="128.705" width="7.6071" height="8.26667" fill="#73562B"/>
<rect x="38.959" y="124.22" width="5.10071" height="12.7518" fill="#73562B"/>
<rect width="11.7404" height="7.73901" transform="matrix(1 0 0 -1 41.8613 72.9929)" fill="#73562B"/>
<rect width="3.78156" height="5.01277" transform="matrix(1 0 0 -1 41.0693 70.2668)" fill="#73562B"/>
<rect width="6.72767" height="2.81419" transform="matrix(1 0 0 -1 48.3691 67.8042)" fill="#73562B"/>
<rect width="2.99007" height="5.01277" transform="matrix(1 0 0 -1 50.6113 70.2668)" fill="#73562B"/>
<path d="M83.1062 35.97C83.1062 56.4186 67.1501 72.9954 47.4672 72.9954C27.7843 72.9954 11.8281 56.4186 11.8281 35.97C11.8281 15.5214 27.7843 2.19849 47.4672 2.19849C67.1501 2.19849 83.1062 15.5214 83.1062 35.97Z" fill="#339D51"/>
<circle cx="55.14" cy="71.3221" r="2.19858" fill="#339D51"/>
<circle cx="52.8099" cy="71.7618" r="2.19858" fill="#339D51"/>
<circle cx="58.2181" cy="70.4427" r="2.19858" fill="#339D51"/>
<circle cx="61.2962" cy="69.5631" r="2.19858" fill="#339D51"/>
<circle cx="43.8719" cy="71.9256" r="2.19858" transform="rotate(19.3173 43.8719 71.9256)" fill="#339D51"/>
<circle cx="47.0672" cy="72.1136" r="2.19858" transform="rotate(19.3173 47.0672 72.1136)" fill="#339D51"/>
<circle cx="50.2626" cy="72.3021" r="2.19858" transform="rotate(19.3173 50.2626 72.3021)" fill="#339D51"/>
<circle cx="69.9237" cy="10.0779" r="2.19858" transform="rotate(51.9468 69.9237 10.0779)" fill="#339D51"/>
<circle cx="72.5136" cy="11.9597" r="2.19858" transform="rotate(51.9468 72.5136 11.9597)" fill="#339D51"/>
<circle cx="75.1034" cy="13.8413" r="2.19858" transform="rotate(51.9468 75.1034 13.8413)" fill="#339D51"/>
<circle cx="77.5303" cy="17.2013" r="2.19858" transform="rotate(78.1695 77.5303 17.2013)" fill="#339D51"/>
<circle cx="79.0225" cy="20.0335" r="2.19858" transform="rotate(78.1695 79.0225 20.0335)" fill="#339D51"/>
<circle cx="80.5137" cy="22.8658" r="2.19858" transform="rotate(78.1695 80.5137 22.8658)" fill="#339D51"/>
<circle cx="30.4795" cy="6.14667" r="2.19858" transform="rotate(-10.3456 30.4795 6.14667)" fill="#339D51"/>
<circle cx="33.3497" cy="4.7287" r="2.19858" transform="rotate(-10.3456 33.3497 4.7287)" fill="#339D51"/>
<circle cx="36.2198" cy="3.31073" r="2.19858" transform="rotate(-10.3456 36.2198 3.31073)" fill="#339D51"/>
<circle cx="40.3228" cy="2.724" r="2.19858" transform="rotate(15.8771 40.3228 2.724)" fill="#339D51"/>
<circle cx="43.524" cy="2.72009" r="2.19858" transform="rotate(15.8771 43.524 2.72009)" fill="#339D51"/>
<circle cx="46.7251" cy="2.71619" r="2.19858" transform="rotate(15.8771 46.7251 2.71619)" fill="#339D51"/>
<circle cx="50.8046" cy="3.27126" r="2.19858" transform="rotate(16.9355 50.8046 3.27126)" fill="#339D51"/>
<circle cx="54.0058" cy="3.32668" r="2.19858" transform="rotate(16.9355 54.0058 3.32668)" fill="#339D51"/>
<circle cx="57.206" cy="3.38186" r="2.19858" transform="rotate(16.9355 57.206 3.38186)" fill="#339D51"/>
<circle cx="61.1224" cy="4.74096" r="2.19858" transform="rotate(43.1581 61.1224 4.74096)" fill="#339D51"/>
<circle cx="63.9691" cy="6.20483" r="2.19858" transform="rotate(43.1581 63.9691 6.20483)" fill="#339D51"/>
<circle cx="66.8158" cy="7.66894" r="2.19858" transform="rotate(43.1581 66.8158 7.66894)" fill="#339D51"/>
<circle cx="82.0909" cy="26.4664" r="2.19858" transform="rotate(99.9641 82.0909 26.4664)" fill="#339D51"/>
<circle cx="82.4239" cy="29.6502" r="2.19858" transform="rotate(99.9641 82.4239 29.6502)" fill="#339D51"/>
<circle cx="82.7579" cy="32.8341" r="2.19858" transform="rotate(99.9641 82.7579 32.8341)" fill="#339D51"/>
<circle cx="82.4778" cy="43.1028" r="2.19858" transform="rotate(-64.3943 82.4778 43.1028)" fill="#339D51"/>
<circle cx="83.0149" cy="39.9468" r="2.19858" transform="rotate(-64.3943 83.0149 39.9468)" fill="#339D51"/>
<circle cx="83.552" cy="36.791" r="2.19858" transform="rotate(-64.3943 83.552 36.791)" fill="#339D51"/>
<circle cx="78.6419" cy="52.8142" r="2.19858" transform="rotate(-49.6711 78.6419 52.8142)" fill="#339D51"/>
<circle cx="79.9642" cy="49.8987" r="2.19858" transform="rotate(-49.6711 79.9642 49.8987)" fill="#339D51"/>
<circle cx="81.2855" cy="46.9826" r="2.19858" transform="rotate(-49.6711 81.2855 46.9826)" fill="#339D51"/>
<circle cx="73.1982" cy="61.4708" r="2.19858" transform="rotate(-35.1459 73.1982 61.4708)" fill="#339D51"/>
<circle cx="75.2089" cy="58.9799" r="2.19858" transform="rotate(-35.1459 75.2089 58.9799)" fill="#339D51"/>
<circle cx="77.2196" cy="56.4889" r="2.19858" transform="rotate(-35.1459 77.2196 56.4889)" fill="#339D51"/>
<circle cx="64.677" cy="67.6311" r="2.19858" transform="rotate(-12.871 64.677 67.6311)" fill="#339D51"/>
<circle cx="67.4817" cy="66.0882" r="2.19858" transform="rotate(-12.871 67.4817 66.0882)" fill="#339D51"/>
<circle cx="70.2864" cy="64.5452" r="2.19858" transform="rotate(-12.871 70.2864 64.5452)" fill="#339D51"/>
<circle r="2.19858" transform="matrix(-1 0 0 1 40.2702 71.3221)" fill="#339D51"/>
<circle r="2.19858" transform="matrix(-1 0 0 1 37.192 70.4427)" fill="#339D51"/>
<circle r="2.19858" transform="matrix(-1 0 0 1 34.1149 69.5631)" fill="#339D51"/>
<circle r="2.19858" transform="matrix(-0.616392 0.787439 0.787439 0.616392 25.4874 10.0779)" fill="#339D51"/>
<circle r="2.19858" transform="matrix(-0.616392 0.787439 0.787439 0.616392 27.3145 7.70338)" fill="#339D51"/>
<circle r="2.19858" transform="matrix(-0.616392 0.787439 0.787439 0.616392 22.8975 11.9597)" fill="#339D51"/>
<circle r="2.19858" transform="matrix(-0.616392 0.787439 0.787439 0.616392 20.3077 13.8413)" fill="#339D51"/>
<circle r="2.19858" transform="matrix(-0.205017 0.978758 0.978758 0.205017 17.8808 17.2013)" fill="#339D51"/>
<circle r="2.19858" transform="matrix(-0.205017 0.978758 0.978758 0.205017 16.3886 20.0335)" fill="#339D51"/>
<circle r="2.19858" transform="matrix(-0.205017 0.978758 0.978758 0.205017 14.8974 22.8658)" fill="#339D51"/>
<circle r="2.19858" transform="matrix(0.173031 0.984916 0.984916 -0.173031 13.3203 26.4664)" fill="#339D51"/>
<circle r="2.19858" transform="matrix(0.173031 0.984916 0.984916 -0.173031 12.9872 29.6502)" fill="#339D51"/>
<circle r="2.19858" transform="matrix(0.173031 0.984916 0.984916 -0.173031 12.6533 32.8341)" fill="#339D51"/>
<circle r="2.19858" transform="matrix(-0.432175 -0.90179 -0.90179 0.432175 12.9334 43.1028)" fill="#339D51"/>
<circle r="2.19858" transform="matrix(-0.432175 -0.90179 -0.90179 0.432175 12.3963 39.9468)" fill="#339D51"/>
<circle r="2.19858" transform="matrix(-0.432175 -0.90179 -0.90179 0.432175 11.8592 36.791)" fill="#339D51"/>
<circle r="2.19858" transform="matrix(-0.647174 -0.762342 -0.762342 0.647174 16.7682 52.8142)" fill="#339D51"/>
<circle r="2.19858" transform="matrix(-0.647174 -0.762342 -0.762342 0.647174 15.447 49.8986)" fill="#339D51"/>
<circle r="2.19858" transform="matrix(-0.647174 -0.762342 -0.762342 0.647174 14.1257 46.9826)" fill="#339D51"/>
<circle r="2.19858" transform="matrix(-0.817689 -0.57566 -0.57566 0.817689 22.213 61.4708)" fill="#339D51"/>
<circle r="2.19858" transform="matrix(-0.817689 -0.57566 -0.57566 0.817689 20.2022 58.9799)" fill="#339D51"/>
<circle r="2.19858" transform="matrix(-0.817689 -0.57566 -0.57566 0.817689 18.1915 56.4889)" fill="#339D51"/>
<circle r="2.19858" transform="matrix(-0.974874 -0.222757 -0.222757 0.974874 30.7341 67.6311)" fill="#339D51"/>
<circle r="2.19858" transform="matrix(-0.974874 -0.222757 -0.222757 0.974874 27.9294 66.0882)" fill="#339D51"/>
<circle r="2.19858" transform="matrix(-0.974874 -0.222757 -0.222757 0.974874 25.1247 64.5452)" fill="#339D51"/>
<ellipse cx="73.1467" cy="73.0134" rx="1.16525" ry="1.14326" fill="#4B568C"/>
<ellipse cx="77.2147" cy="75.1871" rx="1.45107" ry="1.42369" fill="#4B568C"/>
<rect x="73.916" y="68.6162" width="1.13638" height="4.39717" transform="rotate(9.78808 73.916 68.6162)" fill="#4B568C"/>
<rect x="79.1045" y="68.3276" width="1.11002" height="5.21344" transform="rotate(92.3695 79.1045 68.3276)" fill="#4B568C"/>
<rect width="1.13638" height="5.88046" transform="matrix(-0.996946 -0.0780952 -0.0780952 0.996946 79.0859 69.0129)" fill="#4B568C"/>
<ellipse cx="87.0422" cy="9.47432" rx="1.16525" ry="1.14326" fill="#4B568C"/>
<ellipse cx="91.1093" cy="11.6481" rx="1.45107" ry="1.42369" fill="#4B568C"/>
<rect x="87.8115" y="5.07715" width="1.13638" height="4.39717" transform="rotate(9.78808 87.8115 5.07715)" fill="#4B568C"/>
<rect x="93" y="4.78857" width="1.11002" height="5.21344" transform="rotate(92.3695 93 4.78857)" fill="#4B568C"/>
<rect width="1.13638" height="5.88046" transform="matrix(-0.996946 -0.0780952 -0.0780952 0.996946 92.9814 5.47388)" fill="#4B568C"/>
<ellipse cx="1.16525" cy="51.863" rx="1.16525" ry="1.14326" fill="#4B568C"/>
<ellipse cx="5.23232" cy="54.0367" rx="1.45107" ry="1.42369" fill="#4B568C"/>
<rect x="1.93457" y="47.4658" width="1.13638" height="4.39717" transform="rotate(9.78808 1.93457 47.4658)" fill="#4B568C"/>
<rect x="7.12305" y="47.1772" width="1.11002" height="5.21344" transform="rotate(92.3695 7.12305 47.1772)" fill="#4B568C"/>
<rect width="1.13638" height="5.88046" transform="matrix(-0.996946 -0.0780952 -0.0780952 0.996946 7.10449 47.8625)" fill="#4B568C"/>
</svg>
